# Rhino

mtllib cb.mtl
usemtl diffuse_Black
v 15.163620948791504 11 -17.86198616027832
v 17.73670768737793 11 -13.405267715454102
v 20.309795379638672 11 -8.9485502243041992
v 22.882883071899414 11 -4.4918327331542969
v 25.543025970458984 11 -8.9988117218017578
v 28.203166961669922 11 -13.505790710449219
v 30.863309860229492 11 -18.01276969909668
v 25.630081176757813 11 -17.962509155273438
v 20.3968505859375 11 -17.912246704101563
v 15.163620948791504 11 -17.86198616027832
v 13.431660652160645 7.509737491607666 -18.982282638549805
v 12.075542449951172 3.7976737022399902 -19.897052764892578
v 10.908283233642578 0 -20.718177795410156
v 17.73670768737793 11 -13.405267715454102
v 16.608121871948242 7.5214366912841797 -13.314450263977051
v 15.736908912658691 3.8165106773376465 -13.206877708435059
v 20.309795379638672 11 -8.9485502243041992
v 19.784582138061523 7.5331363677978516 -7.6466178894042969
v 19.398275375366211 3.8353474140167236 -6.5167026519775391
v 19.110204696655273 0 -5.5627255439758301
v 22.882883071899414 11 -4.4918327331542969
v 22.961042404174805 7.5448355674743652 -1.9787853956222534
v 23.059640884399414 3.8541841506958008 0.17347230017185211
v 23.211166381835938 0 2.0150008201599121
v 21.160686492919922 0 -1.7738622426986694
v 17.059724807739258 0 -9.351588249206543
v 15.009243965148926 0 -13.14045238494873
v 12.95876407623291 0 -16.929315567016602
v 22.882883071899414 11 -4.4918327331542969
v 25.543025970458984 11 -8.9988117218017578
v 28.203166961669922 11 -13.505790710449219
v 30.863309860229492 11 -18.01276969909668
v 22.961042404174805 7.5448355674743652 -1.9787853956222534
v 26.449872970581055 7.5113515853881836 -7.8157339096069336
v 29.938703536987305 7.4778680801391602 -13.652682304382324
v 33.427532196044922 7.4443840980529785 -19.489631652832031
v 23.059640884399414 3.8541841506958008 0.17347230017185211
v 27.322341918945313 3.8227605819702148 -6.8489656448364258
v 31.585042953491211 3.7913370132446289 -13.871403694152832
v 35.847743988037109 3.759913444519043 -20.893842697143555
v 23.211166381835938 0 2.0150008201599121
v 33.192390441894531 0 -14.154197692871094
v 38.183006286621094 0 -22.238798141479492
v 25.706472396850586 0 -2.0272989273071289
v 28.201780319213867 0 -6.0695986747741699
v 30.697086334228516 0 -10.111898422241211
v 35.687698364257813 0 -18.196496963500977
v 30.863309860229492 11 -18.01276969909668
v 25.630081176757813 11 -17.962509155273438
v 20.3968505859375 11 -17.912246704101563
v 15.163620948791504 11 -17.86198616027832
v 26.762243270874023 7.4661684036254883 -19.320514678955078
v 20.096952438354492 7.4879531860351563 -19.151399612426758
v 35.847743988037109 3.759913444519043 -20.893842697143555
v 27.923677444458008 3.7725002765655518 -20.561578750610352
v 19.999608993530273 3.7850871086120605 -20.229314804077148
v 12.075542449951172 3.7976737022399902 -19.897052764892578
v 38.183006286621094 0 -22.238798141479492
v 19.999856948852539 0 -21.225051879882813
v 10.908283233642578 0 -20.718177795410156
v 13.431660652160645 7.509737491607666 -18.982282638549805
v 33.427532196044922 7.4443840980529785 -19.489631652832031
v 33.637218475341797 0 -21.985361099243164
v 29.0914306640625 0 -21.731924057006836
v 24.545644760131836 0 -21.478488922119141
v 15.454070091247559 0 -20.971614837646484
v 38.183006286621094 0 -22.238798141479492
v 38.183006286621094 0 -22.238798141479492
v 38.183006286621094 0 -22.238798141479492
v 38.183006286621094 0 -22.238798141479492
v 29.0914306640625 0 -21.731924057006836
v 30.458417892456055 0 -19.206016540527344
v 31.825405120849609 0 -16.680107116699219
v 19.999856948852539 0 -21.225051879882813
v 22.733831405639648 0 -16.173233032226563
v 25.467805862426758 0 -11.121416091918945
v 28.201780319213867 0 -6.0695986747741699
v 10.908283233642578 0 -20.718177795410156
v 23.211166381835938 0 2.0150008201599121
v 12.95876407623291 0 -16.929315567016602
v 15.009243965148926 0 -13.14045238494873
v 17.059724807739258 0 -9.351588249206543
v 19.110204696655273 0 -5.5627255439758301
v 21.160686492919922 0 -1.7738622426986694
v 25.706472396850586 0 -2.0272989273071289
v 30.697086334228516 0 -10.111898422241211
v 33.192390441894531 0 -14.154197692871094
v 35.687698364257813 0 -18.196496963500977
v 33.637218475341797 0 -21.985361099243164
v 24.545644760131836 0 -21.478488922119141
v 15.454070091247559 0 -20.971614837646484
vt 0.0028799411375075579 0.48473966121673584
vt 0.098877981305122375 0.48473966121673584
vt 0.19487600028514862 0.48473966121673584
vt 0.29087403416633606 0.48473966121673584
vt 0.24287502467632294 0.5697515606880188
vt 0.19487600028514862 0.65476346015930176
vt 0.1468769907951355 0.73977541923522949
vt 0.098877981305122375 0.65476346015930176
vt 0.050878960639238358 0.5697515606880188
vt 0 0.74763774871826172
vt 0 0.82738637924194336
vt 0 0.90713495016098022
vt 0 0.98688358068466187
vt 0.16024148464202881 0.74763774871826172
vt 0.16024148464202881 0.82738637924194336
vt 0.16024148464202881 0.90713495016098022
vt 0.32048296928405762 0.74763774871826172
vt 0.32048296928405762 0.82738637924194336
vt 0.32048296928405762 0.90713495016098022
vt 0.32048296928405762 0.98688358068466187
vt 0.48072445392608643 0.74763774871826172
vt 0.48072445392608643 0.82738637924194336
vt 0.48072445392608643 0.90713495016098022
vt 0.48072445392608643 0.98688358068466187
vt 0.40060371160507202 0.98688358068466187
vt 0.24036222696304321 0.98688358068466187
vt 0.16024148464202881 0.98688358068466187
vt 0.080120742321014404 0.98688358068466187
vt 0.74109464883804321 0
vt 0.74109464883804321 0.1772320568561554
vt 0.74109464883804321 0.35446411371231079
vt 0.74109464883804321 0.53169620037078857
vt 0.8269081711769104 0
vt 0.8269081711769104 0.1772320568561554
vt 0.8269081711769104 0.35446411371231079
vt 0.8269081711769104 0.53169620037078857
vt 0.91272163391113281 0
vt 0.91272163391113281 0.1772320568561554
vt 0.91272163391113281 0.35446411371231079
vt 0.91272163391113281 0.53169620037078857
vt 0.99853515625 0
vt 0.99853515625 0.35446411371231079
vt 0.99853515625 0.53169620037078857
vt 0.99853515625 0.088616028428077698
vt 0.99853515625 0.1772320568561554
vt 0.99853515625 0.26584810018539429
vt 0.99853515625 0.44308012723922729
vt 0.48218929767608643 0.48218929767608643
vt 0.48218929767608643 0.65156090259552002
vt 0.48218929767608643 0.82093250751495361
vt 0.48218929767608643 0.99030411243438721
vt 0.56800282001495361 0.65156090259552002
vt 0.56800282001495361 0.82093250751495361
vt 0.65381628274917603 0.48218929767608643
vt 0.65381628274917603 0.65156090259552002
vt 0.65381628274917603 0.82093250751495361
vt 0.65381628274917603 0.99030411243438721
vt 0.73962980508804321 0.48218929767608643
vt 0.73962980508804321 0.82093250751495361
vt 0.73962980508804321 0.99030411243438721
vt 0.56800282001495361 0.99030411243438721
vt 0.56800282001495361 0.48218929767608643
vt 0.73962980508804321 0.56687510013580322
vt 0.73962980508804321 0.65156090259552002
vt 0.73962980508804321 0.73624670505523682
vt 0.73962980508804321 0.90561830997467041
vt 0 0
vt 0 0.16024148464202881
vt 0 0.32048296928405762
vt 0 0.48072445392608643
vt 0.1772320568561554 0
vt 0.1772320568561554 0.16024148464202881
vt 0.1772320568561554 0.32048296928405762
vt 0.35446411371231079 0
vt 0.35446411371231079 0.16024148464202881
vt 0.35446411371231079 0.32048296928405762
vt 0.35446411371231079 0.48072445392608643
vt 0.53169620037078857 0
vt 0.53169620037078857 0.48072445392608643
vt 0.53169620037078857 0.080120742321014404
vt 0.53169620037078857 0.16024148464202881
vt 0.53169620037078857 0.24036222696304321
vt 0.53169620037078857 0.32048296928405762
vt 0.53169620037078857 0.40060371160507202
vt 0.44308012723922729 0.48072445392608643
vt 0.26584810018539429 0.48072445392608643
vt 0.1772320568561554 0.48072445392608643
vt 0.088616028428077698 0.48072445392608643
vt 0.088616028428077698 0
vt 0.26584810018539429 0
vt 0.44308012723922729 0
vn 0 1 0
vn 0 1 0
vn 0 1 0
vn 0 1 0
vn 0 1 0
vn 0 1 0
vn 0 1 0
vn 0 1 0
vn 0 1 0
vn -0.82492119073867798 0.30442306399345398 0.476268470287323
vn -0.8500792384147644 0.2254701554775238 0.47595006227493286
vn -0.8640596866607666 0.17392490804195404 0.4723886251449585
vn -0.86774587631225586 0.16273157298564911 0.46961212158203125
vn -0.81955748796463013 0.32316252589225769 0.47317174077033997
vn -0.84586268663406372 0.24550127983093262 0.47354558110237122
vn -0.86166423559188843 0.18883880972862244 0.47103568911552429
vn -0.81393414735794067 0.34158682823181152 0.46992510557174683
vn -0.84130632877349854 0.2653464674949646 0.47095108032226563
vn -0.85909426212310791 0.20357897877693176 0.46958771347999573
vn -0.86756795644760132 0.16395330429077148 0.46951583027839661
vn -0.80806660652160645 0.35968208312988281 0.46653744578361511
vn -0.83642059564590454 0.28498277068138123 0.46817240118980408
vn -0.85635644197463989 0.2181384265422821 0.46804836392402649
vn -0.8674810528755188 0.1645469069480896 0.46946880221366882
vn -0.86752432584762573 0.16425152122974396 0.46949222683906555
vn -0.86761194467544556 0.16365225613117218 0.46953964233398438
vn -0.86765623092651367 0.16334830224514008 0.46956360340118408
vn -0.86770087480545044 0.16304142773151398 0.4695877730846405
vn 0.79053610563278198 0.39666208624839783 0.46659603714942932
vn 0.79025810956954956 0.39740827679634094 0.46643197536468506
vn 0.78998833894729614 0.39813083410263062 0.4662727415561676
vn 0.78972643613815308 0.3988308310508728 0.46611815690994263
vn 0.81030535697937012 0.3326757550239563 0.4824230968952179
vn 0.80751192569732666 0.34183505177497864 0.48070085048675537
vn 0.80467462539672852 0.35085985064506531 0.47895318269729614
vn 0.80179619789123535 0.35975047945976257 0.47718173265457153
vn 0.81977182626724243 0.28570640087127686 0.4963325560092926
vn 0.81572419404983521 0.3012467622756958 0.49380606412887573
vn 0.81145203113555908 0.31673908233642578 0.49114349484443665
vn 0.80695760250091553 0.33217072486877441 0.48834624886512756
vn 0.82094722986221313 0.26311621069908142 0.50676965713500977
vn 0.81141775846481323 0.30118653178215027 0.50088715553283691
vn 0.80609029531478882 0.32033437490463257 0.49759852886199951
vn 0.81870400905609131 0.27259835600852966 0.50538492202758789
vn 0.8163684606552124 0.28210604190826416 0.50394320487976074
vn 0.81393992900848389 0.29163637757301331 0.50244408845901489
vn 0.80880135297775269 0.31075352430343628 0.49927204847335815
vn -0.0088273948058485985 0.39390069246292114 -0.91911059617996216
vn -0.0088800732046365738 0.38084682822227478 -0.92459547519683838
vn -0.0089329835027456284 0.36718642711639404 -0.93010449409484863
vn -0.0089859841391444206 0.35288655757904053 -0.93562299013137817
vn -0.022869797423481941 0.32966282963752747 -0.94382166862487793
vn -0.023178029805421829 0.30338752269744873 -0.95258533954620361
vn -0.039140127599239349 0.32276138663291931 -0.9456707239151001
vn -0.039597198367118835 0.29255947470664978 -0.95542711019515991
vn -0.040018562227487564 0.26173922419548035 -0.96430861949920654
vn -0.040401812642812729 0.23038341104984283 -0.97226083278656006
vn -0.053090132772922516 0.30064988136291504 -0.95225578546524048
vn -0.053861510008573532 0.25251877307891846 -0.96609169244766235
vn -0.054201450198888779 0.22783908247947693 -0.97218906879425049
vn -0.023473050445318222 0.27644690871238708 -0.96074247360229492
vn -0.022549819201231003 0.355235755443573 -0.93450474739074707
vn -0.053293880075216293 0.28878211975097656 -0.95591038465499878
vn -0.05349050834774971 0.27680143713951111 -0.95943719148635864
vn -0.05367979034781456 0.26471215486526489 -0.96283227205276489
vn -0.054035462439060211 0.24022610485553741 -0.96921181678771973
vn 0 -1 0
vn 0 -1 0
vn 0 -1 0
vn 0 -1 0
vn 0 -1 0
vn 0 -1 0
vn 0 -1 0
vn 0 -1 0
vn 0 -1 0
vn 0 -1 0
vn 0 -1 0
vn 0 -1 0
vn 0 -1 0
vn 0 -1 0
vn 0 -1 0
vn 0 -1 0
vn 0 -1 0
vn 0 -1 0
vn 0 -1 0
vn 0 -1 0
vn 0 -1 0
vn 0 -1 0
vn 0 -1 0
vn 0 -1 0
vn 0 -1 0
f 9/9/9 1/1/1 2/2/2
f 9/9/9 5/5/5 8/8/8
f 5/5/5 9/9/9 2/2/2
f 5/5/5 3/3/3 4/4/4
f 8/8/8 6/6/6 7/7/7
f 6/6/6 8/8/8 5/5/5
f 5/5/5 2/2/2 3/3/3
f 19/19/19 18/18/18 15/15/15 16/16/16
f 11/11/11 15/15/15 14/14/14 10/10/10
f 15/15/15 18/18/18 17/17/17 14/14/14
f 15/15/15 11/11/11 12/12/12 16/16/16
f 28/28/28 12/12/12 13/13/13
f 27/27/27 16/16/16 28/28/28
f 12/12/12 28/28/28 16/16/16
f 26/26/26 16/16/16 27/27/27
f 18/18/18 22/22/22 21/21/21 17/17/17
f 19/19/19 23/23/23 22/22/22 18/18/18
f 16/16/16 26/26/26 20/20/20 19/19/19
f 24/24/24 23/23/23 25/25/25
f 19/19/19 20/20/20 25/25/25
f 19/19/19 25/25/25 23/23/23
f 39/39/39 35/35/35 34/34/34 38/38/38
f 30/30/30 29/29/29 33/33/33 34/34/34
f 34/34/34 33/33/33 37/37/37 38/38/38
f 32/32/32 31/31/31 35/35/35 36/36/36
f 34/34/34 35/35/35 31/31/31 30/30/30
f 36/36/36 35/35/35 39/39/39 40/40/40
f 38/38/38 37/37/37 44/44/44
f 41/41/41 44/44/44 37/37/37
f 38/38/38 44/44/44 45/45/45
f 38/38/38 45/45/45 46/46/46
f 39/39/39 38/38/38 46/46/46 42/42/42
f 47/47/47 40/40/40 39/39/39
f 39/39/39 42/42/42 47/47/47
f 40/40/40 47/47/47 43/43/43
f 56/56/56 53/53/53 52/52/52 55/55/55
f 52/52/52 49/49/49 48/48/48 62/62/62
f 55/55/55 52/52/52 62/62/62 54/54/54
f 50/50/50 53/53/53 61/61/61 51/51/51
f 53/53/53 56/56/56 57/57/57 61/61/61
f 52/52/52 53/53/53 50/50/50 49/49/49
f 55/55/55 54/54/54 58/58/58 63/63/63
f 55/55/55 63/63/63 64/64/64
f 55/55/55 64/64/64 65/65/65
f 56/56/56 55/55/55 65/65/65
f 66/66/66 57/57/57 56/56/56
f 56/56/56 59/59/59 66/66/66
f 57/57/57 66/66/66 60/60/60
f 59/59/59 56/56/56 65/65/65
f 73/73/73 72/72/72 68/68/68
f 76/76/76 75/75/75 72/72/72 73/73/73
f 72/72/72 89/89/89 68/68/68
f 72/72/72 90/90/90 71/71/71
f 89/89/89 72/72/72 71/71/71
f 69/69/69 88/88/88 87/87/87 73/73/73
f 87/87/87 86/86/86 73/73/73
f 73/73/73 86/86/86 76/76/76
f 90/90/90 72/72/72 75/75/75
f 75/75/75 91/91/91 74/74/74
f 80/80/80 91/91/91 75/75/75
f 90/90/90 75/75/75 74/74/74
f 91/91/91 80/80/80 78/78/78
f 75/75/75 81/81/81 80/80/80
f 82/82/82 81/81/81 75/75/75
f 77/77/77 85/85/85 76/76/76
f 84/84/84 76/76/76 85/85/85
f 86/86/86 77/77/77 76/76/76
f 76/76/76 83/83/83 82/82/82
f 85/85/85 79/79/79 84/84/84
f 76/76/76 84/84/84 83/83/83
f 82/82/82 75/75/75 76/76/76
