{
  "accessors": [
    {
      "name": "Node-Mesh_0_positions",
      "componentType": 5126,
      "count": 303,
      "min": [
        -1.2309720516204834,
        0.10974296182394028,
        -1.06169593334198
      ],
      "max": [
        0.190473735332489,
        1.1047550439834595,
        0.16931219398975372
      ],
      "type": "VEC3",
      "bufferView": 0,
      "byteOffset": 0
    },
    {
      "name": "Node-Mesh_0_normals",
      "componentType": 5126,
      "count": 303,
      "min": [
        -0.8660253882408142,
        -0.959132969379425,
        -1
      ],
      "max": [
        0.8566160798072815,
        0.9212785363197327,
        0.6871565580368042
      ],
      "type": "VEC3",
      "bufferView": 1,
      "byteOffset": 0
    },
    {
      "name": "Node-Mesh_0_texcoords",
      "componentType": 5126,
      "count": 303,
      "min": [
        0,
        0.0647120475769043
      ],
      "max": [
        0.99853515625,
        1
      ],
      "type": "VEC2",
      "bufferView": 2,
      "byteOffset": 0
    },
    {
      "name": "Node-Mesh_0_indices",
      "componentType": 5123,
      "count": 1212,
      "min": [
        0
      ],
      "max": [
        302
      ],
      "type": "SCALAR",
      "bufferView": 3,
      "byteOffset": 0
    },
    {
      "name": "Node-Mesh_1_positions",
      "componentType": 5126,
      "count": 2737,
      "min": [
        -1.0533239841461182,
        -0.6720522046089172,
        -1.06169593334198
      ],
      "max": [
        1.2309720516204834,
        0.7493935823440552,
        1.070410132408142
      ],
      "type": "VEC3",
      "bufferView": 0,
      "byteOffset": 3636
    },
    {
      "name": "Node-Mesh_1_normals",
      "componentType": 5126,
      "count": 2737,
      "min": [
        -0.9997583627700806,
        -1,
        -1
      ],
      "max": [
        0.9997586011886597,
        0.9798514246940613,
        0.9989600777626038
      ],
      "type": "VEC3",
      "bufferView": 1,
      "byteOffset": 3636
    },
    {
      "name": "Node-Mesh_1_texcoords",
      "componentType": 5126,
      "count": 2737,
      "min": [
        0,
        0.007446646690368652
      ],
      "max": [
        0.99853515625,
        1
      ],
      "type": "VEC2",
      "bufferView": 2,
      "byteOffset": 2424
    },
    {
      "name": "Node-Mesh_1_indices",
      "componentType": 5123,
      "count": 11472,
      "min": [
        0
      ],
      "max": [
        2736
      ],
      "type": "SCALAR",
      "bufferView": 3,
      "byteOffset": 2424
    },
    {
      "name": "Node-Mesh_2_positions",
      "componentType": 5126,
      "count": 336,
      "min": [
        -1.2309720516204834,
        -0.6720522046089172,
        -1.06169593334198
      ],
      "max": [
        -0.5133979916572571,
        1.1047550439834595,
        -0.4461918771266937
      ],
      "type": "VEC3",
      "bufferView": 0,
      "byteOffset": 36480
    },
    {
      "name": "Node-Mesh_2_normals",
      "componentType": 5126,
      "count": 336,
      "min": [
        -0.8660253882408142,
        -1,
        -1
      ],
      "max": [
        0.9993093013763428,
        0.7798523902893066,
        0.9739670157432556
      ],
      "type": "VEC3",
      "bufferView": 1,
      "byteOffset": 36480
    },
    {
      "name": "Node-Mesh_2_texcoords",
      "componentType": 5126,
      "count": 336,
      "min": [
        0,
        0.00146484375
      ],
      "max": [
        0.9565764665603638,
        1
      ],
      "type": "VEC2",
      "bufferView": 2,
      "byteOffset": 24320
    },
    {
      "name": "Node-Mesh_2_indices",
      "componentType": 5123,
      "count": 1410,
      "min": [
        0
      ],
      "max": [
        335
      ],
      "type": "SCALAR",
      "bufferView": 3,
      "byteOffset": 25368
    },
    {
      "name": "Node-Mesh_3_positions",
      "componentType": 5126,
      "count": 89,
      "min": [
        -0.8743941187858582,
        -0.6720522046089172,
        -0.9653424620628357
      ],
      "max": [
        1.0640828609466553,
        0.10974296182394028,
        0.758430540561676
      ],
      "type": "VEC3",
      "bufferView": 0,
      "byteOffset": 40512
    },
    {
      "name": "Node-Mesh_3_normals",
      "componentType": 5126,
      "count": 89,
      "min": [
        -0.8677458763122559,
        -1,
        -0.9722608327865601
      ],
      "max": [
        0.8209472298622131,
        1,
        0.5067696571350098
      ],
      "type": "VEC3",
      "bufferView": 1,
      "byteOffset": 40512
    },
    {
      "name": "Node-Mesh_3_texcoords",
      "componentType": 5126,
      "count": 89,
      "min": [
        0,
        0.009695887565612793
      ],
      "max": [
        0.99853515625,
        1
      ],
      "type": "VEC2",
      "bufferView": 2,
      "byteOffset": 27008
    },
    {
      "name": "Node-Mesh_3_indices",
      "componentType": 5123,
      "count": 282,
      "min": [
        0
      ],
      "max": [
        88
      ],
      "type": "SCALAR",
      "bufferView": 3,
      "byteOffset": 28188
    }
  ],
  "asset": {
    "generator": "obj2gltf",
    "version": "2.0"
  },
  "buffers": [
    {
      "name": "tpd",
      "byteLength": 139632,
      "uri": "data:application/octet-stream;base64,"
    }
  ],
  "bufferViews": [
    {
      "name": "bufferView_0",
      "buffer": 0,
      "byteLength": 41580,
      "byteOffset": 0,
      "byteStride": 12,
      "target": 34962
    },
    {
      "name": "bufferView_1",
      "buffer": 0,
      "byteLength": 41580,
      "byteOffset": 41580,
      "byteStride": 12,
      "target": 34962
    },
    {
      "name": "bufferView_2",
      "buffer": 0,
      "byteLength": 27720,
      "byteOffset": 83160,
      "byteStride": 8,
      "target": 34962
    },
    {
      "name": "bufferView_3",
      "buffer": 0,
      "byteLength": 28752,
      "byteOffset": 110880,
      "target": 34963
    }
  ],
  "materials": [
    {
      "name": "diffuse_Red",
      "pbrMetallicRoughness": {
        "baseColorFactor": [
          1,
          0,
          0,
          1
        ],
        "metallicFactor": 0,
        "roughnessFactor": 1
      },
      "emissiveFactor": [
        0,
        0,
        0
      ],
      "alphaMode": "OPAQUE",
      "doubleSided": false
    },
    {
      "name": "diffuse_0",
      "pbrMetallicRoughness": {
        "baseColorFactor": [
          0,
          0,
          0,
          1
        ],
        "metallicFactor": 0,
        "roughnessFactor": 1
      },
      "emissiveFactor": [
        0,
        0,
        0
      ],
      "alphaMode": "OPAQUE",
      "doubleSided": false
    },
    {
      "name": "diffuse_Blue",
      "pbrMetallicRoughness": {
        "baseColorFactor": [
          0,
          0,
          1,
          1
        ],
        "metallicFactor": 0,
        "roughnessFactor": 1
      },
      "emissiveFactor": [
        0,
        0,
        0
      ],
      "alphaMode": "OPAQUE",
      "doubleSided": false
    },
    {
      "name": "diffuse_Black",
      "pbrMetallicRoughness": {
        "baseColorFactor": [
          0,
          0,
          0,
          1
        ],
        "metallicFactor": 0,
        "roughnessFactor": 1
      },
      "emissiveFactor": [
        0,
        0,
        0
      ],
      "alphaMode": "OPAQUE",
      "doubleSided": false
    }
  ],
  "meshes": [
    {
      "name": "Node-Mesh",
      "primitives": [
        {
          "attributes": {
            "POSITION": 0,
            "NORMAL": 1,
            "TEXCOORD_0": 2
          },
          "indices": 3,
          "material": 0,
          "mode": 4
        },
        {
          "attributes": {
            "POSITION": 4,
            "NORMAL": 5,
            "TEXCOORD_0": 6
          },
          "indices": 7,
          "material": 1,
          "mode": 4
        },
        {
          "attributes": {
            "POSITION": 8,
            "NORMAL": 9,
            "TEXCOORD_0": 10
          },
          "indices": 11,
          "material": 2,
          "mode": 4
        },
        {
          "attributes": {
            "POSITION": 12,
            "NORMAL": 13,
            "TEXCOORD_0": 14
          },
          "indices": 15,
          "material": 3,
          "mode": 4
        }
      ]
    }
  ],
  "nodes": [
    {
      "name": "Node",
      "mesh": 0
    }
  ],
  "scene": 0,
  "scenes": [
    {
      "nodes": [
        0
      ]
    }
  ]
}
